<?xml version="1.0" encoding="utf-8"?>
<!-- Generator: Adobe Illustrator 16.0.0, SVG Export Plug-In . SVG Version: 6.00 Build 0)  -->
<!DOCTYPE svg PUBLIC "-//W3C//DTD SVG 1.1//EN" "http://www.w3.org/Graphics/SVG/1.1/DTD/svg11.dtd">
<svg version="1.1" id="Layer_1" xmlns="http://www.w3.org/2000/svg" xmlns:xlink="http://www.w3.org/1999/xlink" x="0px" y="0px"
	 width="699px" height="297.415px" viewBox="0 0 699 297.415" enable-background="new 0 0 699 297.415" xml:space="preserve">
<g>
	<g>
		<path fill="#7EB9E1" d="M276.708,223.9c0.441,2.464,2.59,4.296,5.18,4.296h20.215c2.969,0,5.369-2.4,5.369-5.307
			c0-2.969-2.4-5.369-5.369-5.369h-16.551h-3.664c-1.832,0-3.601-0.253-5.307-0.758c-3.727-1.074-7.012-3.285-9.476-6.191
			c-1.643-2.021-2.969-4.358-3.664-6.948c-0.505-1.706-0.821-3.475-0.821-5.37c0-8.718,5.938-16.172,13.961-18.509
			c1.706-0.506,3.475-0.759,5.307-0.759h20.215c10.297,0,18.699,8.149,19.268,18.257h-14.024c-0.442-2.464-2.653-4.296-5.243-4.296
			h-20.215c-2.906,0-5.307,2.401-5.307,5.307c0,2.969,2.4,5.37,5.307,5.37h15.161h5.054c5.938,0,11.308,2.716,14.846,6.948
			c1.643,2.021,2.905,4.422,3.664,6.949c0.505,1.705,0.758,3.537,0.758,5.369c0,10.613-8.654,19.268-19.268,19.268h-20.215
			c-1.832,0-3.601-0.253-5.307-0.758c-7.707-2.211-13.455-9.224-13.897-17.499h13.897H276.708z"/>
		<path fill="#7EB9E1" d="M359.459,242.157c-5.117,0-9.918-1.39-14.087-3.79c-8.275-4.864-13.898-13.897-13.898-24.195v-35.187
			h13.898v13.961v21.226c0,7.707,6.38,14.024,14.087,14.024c7.644,0,14.024-6.317,14.024-14.024v-21.226v-13.961h13.897v35.187
			c0,10.298-5.56,19.331-13.897,24.195C369.313,240.767,364.513,242.157,359.459,242.157z"/>
		<path fill="#7EB9E1" d="M451.748,210.571c1.706,2.021,2.969,4.422,3.728,6.949c0.505,1.705,0.758,3.537,0.758,5.369
			c0,10.613-8.654,19.268-19.268,19.268h-25.521h-13.961V217.52v-6.949v-6.948v-24.638h13.961h22.489
			c10.613,0,19.33,8.655,19.33,19.268c0,1.896-0.315,3.664-0.821,5.37c-0.505,1.832-1.326,3.601-2.337,5.18
			C450.674,209.371,451.242,209.939,451.748,210.571z M411.444,203.623h22.489c2.969,0,5.37-2.464,5.37-5.37
			c0-2.905-2.401-5.307-5.37-5.307h-22.489V203.623z M411.444,228.196h25.521c2.906,0,5.369-2.4,5.369-5.307
			c0-2.905-2.463-5.369-5.369-5.369h-3.032h-22.489V228.196z"/>
		<path fill="#7EB9E1" d="M480.425,223.9c0.441,2.464,2.59,4.296,5.18,4.296h20.215c2.969,0,5.369-2.4,5.369-5.307
			c0-2.969-2.4-5.369-5.369-5.369h-16.551h-3.664c-1.832,0-3.601-0.253-5.307-0.758c-3.727-1.074-7.012-3.285-9.476-6.191
			c-1.643-2.021-2.969-4.358-3.664-6.948c-0.505-1.706-0.821-3.475-0.821-5.37c0-8.718,5.938-16.172,13.961-18.509
			c1.706-0.506,3.475-0.759,5.307-0.759h20.215c10.297,0,18.699,8.149,19.268,18.257h-14.024c-0.442-2.464-2.653-4.296-5.243-4.296
			h-20.215c-2.906,0-5.307,2.401-5.307,5.307c0,2.969,2.4,5.37,5.307,5.37h15.161h5.054c5.938,0,11.308,2.716,14.846,6.948
			c1.643,2.021,2.905,4.422,3.664,6.949c0.505,1.705,0.758,3.537,0.758,5.369c0,10.613-8.654,19.268-19.268,19.268h-20.215
			c-1.832,0-3.601-0.253-5.307-0.758c-7.707-2.211-13.455-9.224-13.897-17.499h13.897H480.425z"/>
		<path fill="#7EB9E1" d="M549.089,228.196h37.208v13.961H535.19v-13.961V217.52v-6.949v-6.948v-10.677v-13.961h51.106v13.961
			h-37.208v10.677h32.849v13.897h-32.849V228.196z"/>
		<path fill="#7EB9E1" d="M612.131,242.157h-12.256H596.4l2.274-4.358l1.2-2.338l6.064-11.623l15.478-29.754l7.833-15.099
			l7.833,15.099l15.54,29.754l6.002,11.623l1.263,2.338l2.274,4.358h-3.537h-12.192l-2.274-4.358h-29.754L612.131,242.157z
			 M629.25,209.181l-7.644,14.656h15.287L629.25,209.181z"/>
	</g>
</g>
<path fill-rule="evenodd" clip-rule="evenodd" fill="#7EB9E1" d="M33.946,207.043c5.132-0.659,9.951-1.049,14.68-1.926
	c14.814-2.741,27.771-9.762,40.209-17.883c23.899-15.61,45.583-34.292,69.462-49.943c23.522-15.419,48.284-28.138,75.498-35.716
	c1.381-0.384,2.766-0.755,4.167-1.049c7.596-1.585,7.65-1.597,10.5,5.513c1.438,3.573,4.498,7.739,3.229,10.787
	c-1.211,2.903-6.576,2.201-10.094,3.141c-25.917,6.93-49.461,18.891-71.771,33.547c-19.31,12.685-37.28,27.198-56.024,40.654
	c-15.414,11.066-31.208,21.438-49.463,27.4c-5.062,1.654-10.226,2.757-15.45,3.683c-1.333,0.238-2.545,0.295-3.502-0.918
	C41.14,218.96,37.06,213.488,33.946,207.043z"/>
<path fill-rule="evenodd" clip-rule="evenodd" fill="#7EB9E1" d="M111.582,265.537c4.522-2.642,8.71-5.001,12.812-7.501
	c22.331-13.609,42.501-30.247,63.681-45.475c18.675-13.421,38.061-25.573,60.081-32.894c1.477-0.492,2.974-0.915,4.563-1.401
	C242.429,231.649,182.519,281.497,111.582,265.537z"/>
<path fill-rule="evenodd" clip-rule="evenodd" fill="#FFFFFF" d="M254.125,137.231l-0.006,0.058
	c-0.439,0.024-0.942,0.107-1.544,0.26c-10.682,2.347-21.02,5.763-31.074,10.022c-25.174,10.663-47.417,26.107-69.224,42.315
	c-27.549,20.477-54.03,42.811-88.586,52.362c5.142,4.968,11.03,7.928,16.497,11.519c3.171,2.082,5.819,1.949,9.16,0.479
	c8.689-3.824,17.031-8.274,25.12-13.2c21.985-13.389,41.788-29.843,62.654-44.806c20.596-14.771,42.1-27.823,66.338-35.929
	c2.796-1.088,5.879-1.293,8.533-2.147l-0.002,0.023l410.171-0.06V137.45L254.125,137.231z"/>
<path fill="#7EB9E1" d="M57.039,189.375v-84.996l-23.247,26.73v62.262l0.914,0.726c3.428-0.393,6.749-0.764,10.021-1.37
	C48.973,191.939,53.065,190.792,57.039,189.375z"/>
<path fill="#FFFFFF" d="M87.457,173.139V69.403l-22.882,26.31v90.607c7.062-3.211,13.785-7.185,20.359-11.479
	C85.783,174.288,86.611,173.701,87.457,173.139z"/>
<path fill="#7EB9E1" d="M118.42,33.799L95.541,60.105v107.51c7.739-5.438,15.321-11.1,22.879-16.792V33.799z"/>
<path fill-rule="evenodd" clip-rule="evenodd" fill="#FFFFFF" d="M238.464,85.83c-3.63-5.906-7.64-11.518-12.196-16.738
	c-21.611-24.762-48.95-38.103-81.54-40.937c-5.298-0.417-10.514-0.481-15.656-0.237l0.922,48.408
	c18.393,0.688,44.089,7.986,56.804,21.938c2.014,2.206,6.202,3.517,9.451,2.366c13.858-4.904,25.823-9.045,40.408-11.05
	C239.72,89.161,239.969,88.279,238.464,85.83z"/>
<g>
	<g>
		<polygon fill="#FFFFFF" points="335.937,76.609 335.937,83.807 335.937,91.005 335.937,116.528 350.333,116.528 350.333,91.005 
			350.333,83.807 350.333,76.609 350.333,51.087 335.937,51.087 		"/>
		<polygon fill="#FFFFFF" points="406.088,83.807 403.744,83.807 391.953,74.252 377.817,62.801 363.422,51.087 363.422,69.673 
			363.422,83.807 363.422,116.528 377.817,116.528 377.817,83.807 380.804,83.807 391.953,92.839 406.088,104.29 420.552,116.004 
			420.552,97.419 420.552,83.807 420.552,50.563 406.088,50.563 		"/>
		<polygon fill="#FFFFFF" points="433.636,65.549 433.636,76.609 433.636,83.807 433.636,91.005 433.636,102.065 433.636,116.528 
			486.577,116.528 486.577,102.065 448.032,102.065 448.032,91.005 482.063,91.005 482.063,83.807 482.063,76.609 448.032,76.609 
			448.032,65.549 486.577,65.549 486.577,51.087 433.636,51.087 		"/>
		<path fill="#FFFFFF" d="M519.623,65.549h20.94c2.683,0,4.975,1.897,5.432,4.451h14.528c-0.588-10.471-9.291-18.913-19.96-18.913
			h-20.94c-1.897,0-3.73,0.262-5.497,0.784c-8.311,2.421-14.461,10.145-14.461,19.175c0,1.964,0.325,3.795,0.851,5.563
			c0.72,2.682,2.093,5.104,3.795,7.197c2.55,3.01,5.954,5.301,9.815,6.414c1.767,0.522,3.6,0.785,5.497,0.785h3.795h17.146
			c3.075,0,5.563,2.486,5.563,5.563c0,3.01-2.487,5.497-5.563,5.497h-20.94c-2.683,0-4.907-1.897-5.367-4.45h-0.13h-14.397
			c0.459,8.572,6.416,15.837,14.397,18.128c1.767,0.522,3.6,0.785,5.497,0.785h20.94c10.994,0,19.96-8.966,19.96-19.959
			c0-1.897-0.263-3.795-0.785-5.563c-0.785-2.617-2.095-5.104-3.796-7.199c-3.666-4.384-9.229-7.197-15.379-7.197h-5.233h-15.707
			c-3.011,0-5.497-2.488-5.497-5.563C514.126,68.036,516.612,65.549,519.623,65.549z"/>
		<polygon fill="#FFFFFF" points="573.608,76.609 573.608,83.807 573.608,91.005 573.608,116.528 588.005,116.528 588.005,91.005 
			588.005,83.807 588.005,76.609 588.005,51.087 573.608,51.087 		"/>
		<path fill="#FFFFFF" d="M318.205,83.807c-2.486-3.009-5.89-5.3-9.815-6.413c-0.655-0.195-1.375-0.393-2.096-0.524l13.874-25.783
			h-16.424l-13.611,25.522c-4.582,0-9.163,0-13.679,0V51.087h-14.462c0,10.928,0,21.815,0,32.719c0,10.906,0,21.825,0,32.721
			c4.842,0,9.618,0,14.462,0v-0.065c0-8.442,0-16.95,0-25.458c8.835,0,17.604,0,26.438,0c3.011,0,5.497,2.553,5.497,5.563v19.959
			h14.462V96.569c0-1.897-0.262-3.795-0.784-5.563C321.28,88.388,319.972,85.902,318.205,83.807z"/>
		<path fill="#FFFFFF" d="M657.371,83.807c-3.663-4.384-9.228-7.197-15.378-7.197h-5.234h-15.706c-3.012,0-5.497-2.488-5.497-5.563
			c0-3.011,2.485-5.497,5.497-5.497h20.94c2.683,0,4.975,1.897,5.432,4.451h14.528c-0.588-10.471-9.292-18.913-19.96-18.913h-20.94
			c-1.897,0-3.731,0.262-5.497,0.784c-8.311,2.421-14.461,10.145-14.461,19.175c0,1.964,0.324,3.795,0.851,5.563
			c0.72,2.682,2.093,5.104,3.795,7.197c2.55,3.01,5.953,5.301,9.815,6.414c1.766,0.522,3.6,0.785,5.497,0.785h3.796h17.145
			c3.075,0,5.563,2.486,5.563,5.563c0,3.01-2.487,5.497-5.563,5.497h-20.94c-2.683,0-4.907-1.897-5.366-4.45h-0.131h-14.397
			c0.458,8.572,6.415,15.837,14.397,18.128c1.766,0.522,3.6,0.785,5.497,0.785h20.94c10.994,0,19.96-8.966,19.96-19.959
			c0-1.897-0.263-3.795-0.785-5.563C660.383,88.388,659.073,85.902,657.371,83.807z"/>
	</g>
</g>
</svg>
